#!OML:ASF Y:\EmotionMaleHayes\Project 1\Capture day 1\Session 1\Male1.ASF
:FULLY-SPECIFIED
:DEGREES
592
root 48.9842 17.1179 -1.72426 938.071 97.672 940.264
lowerback 3.22488 2.08834 -8.96511
upperback 0.814187 2.51467 -1.69142
thorax -1.27091 1.3014 3.15017
lowerneck -22.663 2.03341 2.54632
upperneck 21.794 2.48177 -1.63911
head 10.8306 1.17288 -0.616856
rclavicle 1.01567e-014 -7.95139e-015
rhumerus -40.0094 -4.48696 -82.6816
rradius 31.0445
rwrist 0.666976
rhand -9.02596 -33.6518
rfingers 7.12502
rthumb 16.9214 -62.9347
lclavicle 1.01567e-014 -7.95139e-015
lhumerus -32.411 -12.6213 91.3154
lradius 29.2469
lwrist -7.991
lhand -10.4499 -23.9817
lfingers 7.12502
lthumb 15.5504 5.41312
rfemur 6.9115 -0.784243 5.68274
rtibia 11.7154
rfoot -18.4273 -2.27524
rtoes -0.924805
lfemur 13.7968 2.80487 -25.3311
ltibia -2.19279
lfoot -10.7938 12.2221
ltoes 5.48849
593
root 48.9923 17.1206 -1.72584 941.252 97.722 943.349
lowerback 2.98428 2.00023 -9.01482
upperback 0.917616 2.43421 -1.88122
thorax -1.01168 1.2507 2.99684
lowerneck -22.7728 1.9843 2.65264
upperneck 21.7299 2.40152 -1.76472
head 10.8286 1.1273 -0.692162
rclavicle 1.97418e-014 1.66979e-014
rhumerus -39.5094 -4.02966 -83.0126
rradius 31.2761
rwrist 0.592796
rhand -8.3196 -34.2566
rfingers 7.12502
rthumb 17.6013 -63.4798
lclavicle 1.97418e-014 1.66979e-014
lhumerus -32.4172 -11.8527 91.2154
lradius 28.3393
lwrist -8.69851
lhand -10.4643 -23.9227
lfingers 7.12502
lthumb 15.5365 5.47312
rfemur 6.95088 -1.82655 4.93247
rtibia 11.7216
rfoot -18.24 -1.5027
rtoes -1.91746
lfemur 13.7034 2.6704 -25.9781
ltibia -2.16612
lfoot -10.8154 12.1554
ltoes 6.20723
594
root 48.9751 17.1193 -1.68685 937.821 97.4698 939.924
lowerback 3.35154 2.01606 -8.88612
upperback 0.831467 2.40749 -1.64051
thorax -1.31018 1.2484 3.16101
lowerneck -22.7875 1.99903 2.7781
upperneck 21.8091 2.44265 -1.99556
head 10.8668 1.12754 -0.789938
rclavicle -2.71341e-014 5.76476e-014
rhumerus -39.2548 -3.45979 -83.2348
rradius 31.5233
rwrist 0.644695
rhand -7.54976 -34.6913
rfingers 7.12502
rthumb 18.342 -63.8466
lclavicle -2.71341e-014 5.76476e-014
lhumerus -32.7185 -10.6464 91.0596
lradius 27.5371
lwrist -9.7802
lhand -10.4519 -23.9204
lfingers 7.12502
lthumb 15.5484 5.47457
rfemur 6.89389 -0.658475 6.12573
rtibia 11.6028
rfoot -18.3915 -2.698
rtoes -2.78254
lfemur 13.6355 2.25576 -25.1615
ltibia -2.06595
lfoot -10.9344 12.5819
ltoes 6.53398
595
root 48.9762 17.1173 -1.65566 935.674 97.4593 937.843
lowerback 3.05699 2.06761 -8.80438
upperback 1.1638 2.53475 -1.55638
thorax -0.81476 1.28372 3.21476
lowerneck -23.1304 1.9477 2.70865
upperneck 21.7221 2.37736 -1.99861
head 10.8955 1.08635 -0.788396
rclavicle 1.29707e-014 -3.97569e-014
rhumerus -38.5314 -3.26887 -83.4143
rradius 31.7525
rwrist 0.86806
rhand -7.47899 -34.1883
rfingers 7.12502
rthumb 18.4101 -63.3371
lclavicle 1.29707e-014 -3.97569e-014
lhumerus -32.385 -9.95081 90.9122
lradius 26.6048
lwrist -10.3741
lhand -10.5395 -24.0136
lfingers 7.12502
lthumb 15.4641 5.38788
rfemur 6.9662 0.0244413 6.72967
rtibia 11.5087
rfoot -18.2585 -3.35036
rtoes -4.60108
lfemur 13.7861 2.01783 -24.7809
ltibia -2.15368
lfoot -11.0242 12.9627
ltoes 6.69322
596
root 48.9797 17.1195 -1.62191 933.512 97.4119 935.593
lowerback 3.2867 2.18527 -8.65299
upperback 0.899449 2.64992 -1.50441
thorax -1.22893 1.36221 3.16325
lowerneck -22.9545 1.82865 2.62432
upperneck 21.8641 2.23463 -1.92485
head 10.9096 1.02734 -0.771276
rclavicle 5.05658e-015 1.94809e-014
rhumerus -38.8954 -3.11028 -83.5774
rradius 32.4774
rwrist 0.758099
rhand -8.21741 -33.1222
rfingers 7.12502
rthumb 17.6996 -62.3367
lclavicle 5.05658e-015 1.94809e-014
lhumerus -32.9912 -9.4471 90.907
lradius 25.8123
lwrist -10.6904
lhand -10.6176 -24.0189
lfingers 7.12502
lthumb 15.3889 5.38839
rfemur 6.97524 0.742166 7.37951
rtibia 11.0834
rfoot -18.3801 -3.62872
rtoes 0.441885
lfemur 13.764 1.82585 -24.3083
ltibia -2.22971
lfoot -11.1749 13.164
ltoes 7.07725
597
root 48.9883 17.1191 -1.61988 933.719 97.1939 935.755
lowerback 3.36064 2.13869 -8.29668
upperback 0.786363 2.58337 -1.54892
thorax -1.36306 1.3353 2.91803
lowerneck -22.7664 1.83206 2.72222
upperneck 21.8705 2.23588 -2.00903
head 10.8794 1.02791 -0.818623
rclavicle 1.86361e-014 -3.89618e-014
rhumerus -38.8614 -2.73927 -83.788
rradius 32.9708
rwrist 0.152428
rhand -9.07705 -32.1486
rfingers 7.12502
rthumb 16.8723 -61.4356
lclavicle 1.86361e-014 -3.89618e-014
lhumerus -33.4066 -8.66095 90.7637
lradius 25.0234
lwrist -11.3815
lhand -10.6987 -23.9846
lfingers 7.12502
lthumb 15.3108 5.42866
rfemur 7.20021 -0.0410011 7.2731
rtibia 10.796
rfoot -18.2051 -2.90226
rtoes 0.627419
lfemur 13.7896 1.85254 -24.2575
ltibia -2.28495
lfoot -10.9693 12.9971
ltoes 6.16508
598
root 48.9975 17.1191 -1.61975 934.787 97.0252 936.784
lowerback 3.29646 2.06135 -8.01907
upperback 0.80681 2.49804 -1.64313
thorax -1.28056 1.28883 2.67474
lowerneck -22.9208 1.87308 2.86904
upperneck 22.0143 2.24757 -2.03508
head 10.9641 1.04185 -0.849928
rclavicle 1.31571e-014 -3.18055e-015
rhumerus -38.588 -2.55792 -83.9537
rradius 33.2673
rwrist 0.0123396
rhand -9.487 -31.3832
rfingers 7.12502
rthumb 16.4776 -60.7035
lclavicle 1.31571e-014 -3.18055e-015
lhumerus -33.5907 -7.94704 90.5614
lradius 24.2293
lwrist -12.1653
lhand -10.767 -23.931
lfingers 7.12502
lthumb 15.2449 5.48726
rfemur 7.38888 -0.693892 7.01187
rtibia 10.5871
rfoot -18.2159 -1.79893
rtoes 5.01289
lfemur 13.8071 1.94617 -24.3695
ltibia -2.32783
lfoot -10.5938 12.8731
ltoes 4.73418
599
root 49.0031 17.1182 -1.60667 937.879 97.1744 939.917
lowerback 3.12345 2.00589 -8.43208
upperback 0.981765 2.44425 -1.7297
thorax -1.00834 1.25098 2.8273
lowerneck -23.0196 1.85045 2.76502
upperneck 21.89 2.21574 -1.93478
head 10.9328 1.0289 -0.800887
rclavicle 2.8625e-014 -1.78906e-014
rhumerus -38.0358 -2.20681 -84.1177
rradius 33.3112
rwrist 0.213108
rhand -9.3857 -31.0655
rfingers 7.12502
rthumb 16.5751 -60.3776
lclavicle 2.8625e-014 -1.78906e-014
lhumerus -33.5043 -6.82163 90.2303
lradius 23.4744
lwrist -13.2424
lhand -10.6074 -23.7336
lfingers 7.12502
lthumb 15.3987 5.67295
rfemur 7.56841 -1.11622 6.40894
rtibia 10.5186
rfoot -18.259 -1.29292
rtoes 6.61411
lfemur 13.8481 2.03089 -24.8371
ltibia -2.31248
lfoot -10.4783 12.8428
ltoes 3.62566
600
root 48.999 17.1185 -1.5527 931.959 97.1186 934.033
lowerback 3.13185 2.14908 -8.33056
upperback 1.05329 2.63774 -1.44317
thorax -0.969863 1.34152 3.05869
lowerneck -23.0133 1.8192 2.65214
upperneck 21.7687 2.16588 -1.78149
head 10.8819 1.01528 -0.734535
rclavicle -1.40392e-015 -1.23246e-014
rhumerus -37.6465 -1.68933 -84.3699
rradius 33.5248
rwrist -0.115313
rhand -9.60135 -31.0517
rfingers 7.12502
rthumb 16.3675 -60.3811
lclavicle -1.40392e-015 -1.23246e-014
lhumerus -33.4737 -5.69061 89.8523
lradius 22.6377
lwrist -14.3248
lhand -10.5289 -23.6171
lfingers 7.12502
lthumb 15.4743 5.78358
rfemur 7.68965 0.782993 7.9583
rtibia 10.0305
rfoot -18.4701 -2.67703
rtoes 8.27548
lfemur 13.9752 1.73411 -23.7177
ltibia -2.37038
lfoot -10.6772 13.4002
ltoes 3.24746
